# Blender v2.83 (sub 11) OBJ File: ''
# www.blender.org
mtllib parks_after.mtl
o parks_after
v 40.048222 0.000000 435.053040
v 40.048222 0.000000 454.877838
v 236.771378 0.000000 451.522888
v 235.856384 0.000000 430.783081
v 303.459534 0.000000 429.080353
v 303.688690 0.000000 448.099701
v 400.618652 0.000000 447.183105
v 400.389496 0.000000 427.934601
v 412.958252 0.000000 425.641357
v 413.180328 0.000000 445.183777
v 516.003662 0.000000 444.015320
v 515.781616 0.000000 424.472900
v 521.623840 0.000000 423.304474
v 521.623840 0.000000 443.168060
v 560.766846 0.000000 443.168060
v 560.766846 0.000000 423.304474
v 723.565857 0.000000 363.821991
v 701.074951 0.000000 412.068665
v 700.349426 0.000000 414.607971
v 699.986633 0.000000 424.039642
v 699.986633 0.000000 437.461670
v 701.800415 0.000000 449.432648
v 707.060425 0.000000 457.957428
v 732.453369 0.000000 472.286316
v 739.164429 0.000000 473.918732
v 742.610596 0.000000 471.198059
v 744.424377 0.000000 465.938080
v 742.610596 0.000000 461.222229
v 740.434082 0.000000 457.413300
v 737.169250 0.000000 451.065033
v 734.629944 0.000000 444.716797
v 733.541687 0.000000 439.094055
v 732.997559 0.000000 432.745819
v 732.816162 0.000000 426.760315
v 733.360291 0.000000 420.230713
v 734.811340 0.000000 412.431427
v 752.767761 0.000000 379.057800
v 754.400208 0.000000 373.616425
v 752.586426 0.000000 369.807495
v 730.095459 0.000000 359.831665
v 726.286560 0.000000 360.557190
v 788.672058 0.000000 486.380341
v 784.089050 0.000000 490.755005
v 784.505676 0.000000 495.546295
v 788.255371 0.000000 500.754211
v 793.671631 0.000000 503.462341
v 803.670837 0.000000 507.837006
v 815.544922 0.000000 512.628296
v 822.627747 0.000000 512.003357
v 829.710510 0.000000 509.920166
v 836.168335 0.000000 507.628693
v 842.417847 0.000000 503.462341
v 848.875671 0.000000 498.671051
v 853.458679 0.000000 494.504700
v 859.499878 0.000000 487.421936
v 864.082825 0.000000 481.797363
v 890.955750 0.000000 426.176666
v 889.289246 0.000000 424.093506
v 885.122864 0.000000 421.593689
v 875.956909 0.000000 417.010712
v 869.290771 0.000000 414.094269
v 864.082825 0.000000 414.094269
v 860.333130 0.000000 417.635681
v 858.041626 0.000000 423.051910
v 854.708557 0.000000 430.759644
v 850.125610 0.000000 441.383820
v 844.709351 0.000000 450.758087
v 839.918030 0.000000 460.340698
v 833.460205 0.000000 468.256744
v 826.794067 0.000000 474.922882
v 818.669678 0.000000 479.922516
v 809.295410 0.000000 483.672211
v 799.504517 0.000000 486.380341
v 752.502808 0.000000 306.191345
v 750.627930 0.000000 309.941071
v 780.043457 0.000000 322.435028
v 783.958679 0.000000 315.357300
v 790.833130 0.000000 301.400055
v 798.332581 0.000000 287.026184
v 801.665649 0.000000 280.568359
v 805.623657 0.000000 275.568726
v 811.039917 0.000000 270.569122
v 817.706055 0.000000 265.569519
v 824.580505 0.000000 262.653076
v 831.038330 0.000000 260.153259
v 844.287720 0.000000 258.220703
v 847.912048 0.000000 257.445129
v 850.203552 0.000000 254.112076
v 850.620178 0.000000 251.612259
v 849.578613 0.000000 248.279190
v 846.453857 0.000000 244.946106
v 842.495789 0.000000 242.654617
v 836.037964 0.000000 239.529861
v 829.371826 0.000000 236.405106
v 821.039124 0.000000 233.072037
v 816.039551 0.000000 232.447083
v 810.414978 0.000000 232.655396
v 805.690186 0.000000 234.264221
v 800.690552 0.000000 236.555710
v 795.899292 0.000000 239.746979
v 791.240967 0.000000 243.372452
v 786.666809 0.000000 247.029282
v 782.841797 0.000000 250.730072
v 778.316528 0.000000 255.211365
v 774.792725 0.000000 260.361572
v 889.973877 0.000000 279.086182
v 898.361328 0.000000 288.480103
v 900.709778 0.000000 295.525543
v 903.729248 0.000000 304.919434
v 904.400269 0.000000 315.655334
v 902.722778 0.000000 331.088196
v 897.690308 0.000000 342.495087
v 889.302917 0.000000 359.605438
v 879.908997 0.000000 378.393250
v 881.250977 0.000000 384.767700
v 884.941467 0.000000 387.787170
v 891.651367 0.000000 391.813141
v 900.709778 0.000000 395.168091
v 907.419739 0.000000 394.161621
v 932.917480 0.000000 342.495087
v 936.272461 0.000000 333.436676
v 937.614441 0.000000 318.674805
v 936.607971 0.000000 307.603424
v 935.601440 0.000000 298.209503
v 935.265991 0.000000 291.499573
v 931.239990 0.000000 286.131622
v 903.166260 0.000000 271.856628
v 893.633972 0.000000 272.894684
v 783.797974 0.000000 320.277283
v 784.658752 0.000000 324.237030
v 787.929871 0.000000 326.475128
v 791.545288 0.000000 326.130798
v 794.472046 0.000000 323.376190
v 810.827515 0.000000 289.287933
v 813.582153 0.000000 286.533325
v 814.787292 0.000000 284.639526
v 815.820251 0.000000 282.057098
v 814.442932 0.000000 279.302490
v 811.688354 0.000000 276.720032
v 808.072937 0.000000 276.892212
v 805.318298 0.000000 278.958160
v 802.219360 0.000000 282.917908
v 822.190308 0.000000 266.906769
v 822.190308 0.000000 270.866516
v 824.772766 0.000000 274.309753
v 829.765442 0.000000 275.170563
v 835.446838 0.000000 273.104614
v 841.989014 0.000000 270.866516
v 843.366333 0.000000 266.734589
v 842.505493 0.000000 262.602692
v 836.479797 0.000000 262.086182
v 830.454102 0.000000 263.119171
v 887.956543 0.000000 287.049835
v 885.374084 0.000000 289.976593
v 885.201904 0.000000 294.969330
v 886.923584 0.000000 299.101227
v 888.989502 0.000000 304.954773
v 892.088440 0.000000 306.676392
v 895.187378 0.000000 307.192871
v 897.769836 0.000000 306.159912
v 898.802795 0.000000 303.921783
v 898.630615 0.000000 300.995026
v 898.114136 0.000000 297.379608
v 896.048218 0.000000 293.592010
v 894.498718 0.000000 289.460114
v 891.744141 0.000000 287.049835
v 897.941956 0.000000 318.555634
v 891.227600 0.000000 319.072113
v 889.678162 0.000000 321.482422
v 888.645203 0.000000 324.753510
v 885.374084 0.000000 332.673004
v 866.263977 0.000000 371.409668
v 865.403198 0.000000 375.025085
v 867.124817 0.000000 380.017822
v 871.773193 0.000000 381.222961
v 875.732971 0.000000 379.673492
v 897.253357 0.000000 335.427612
v 898.286316 0.000000 331.984344
v 899.835754 0.000000 326.819458
v 900.007935 0.000000 322.343231
v 737.853027 0.000000 412.204376
v 736.559509 0.000000 418.083862
v 736.677124 0.000000 422.787445
v 738.793701 0.000000 424.551300
v 741.498291 0.000000 425.256836
v 745.378723 0.000000 424.668884
v 747.260193 0.000000 422.199493
v 747.495361 0.000000 417.613495
v 766.074524 0.000000 381.278320
v 766.074524 0.000000 379.396881
v 765.721741 0.000000 377.162689
v 764.663452 0.000000 375.163666
v 762.899597 0.000000 374.575714
v 760.430176 0.000000 373.870178
v 757.608032 0.000000 373.987762
v 755.726624 0.000000 375.869202
v 738.440918 0.000000 437.780121
v 737.382629 0.000000 438.956024
v 737.617798 0.000000 443.071655
v 738.676147 0.000000 448.245605
v 741.380676 0.000000 452.949188
v 743.850037 0.000000 457.299988
v 746.907410 0.000000 457.770355
v 749.964722 0.000000 456.594452
v 751.493408 0.000000 454.125092
v 751.963745 0.000000 450.479797
v 751.610962 0.000000 447.540070
v 750.082336 0.000000 443.777191
v 748.906433 0.000000 440.131927
v 747.024963 0.000000 437.192169
v 744.908386 0.000000 436.251465
v 741.851013 0.000000 436.251465
v 793.531677 0.000000 475.879150
v 792.943726 0.000000 478.701294
v 793.884460 0.000000 481.876221
v 797.529724 0.000000 483.992828
v 801.998108 0.000000 482.816956
v 806.701721 0.000000 481.288269
v 812.228394 0.000000 479.054077
v 814.580200 0.000000 475.879150
v 814.109863 0.000000 472.469055
v 812.346008 0.000000 469.999664
v 809.641479 0.000000 469.058960
v 805.760986 0.000000 469.176544
v 801.057434 0.000000 470.117279
v 796.706604 0.000000 471.528351
v 828.220581 0.000000 449.656677
v 820.459717 0.000000 462.121185
v 820.694885 0.000000 464.472961
v 821.988342 0.000000 466.589569
v 823.869812 0.000000 468.235840
v 827.750244 0.000000 468.588593
v 830.454834 0.000000 466.471985
v 833.512146 0.000000 463.179474
v 836.451904 0.000000 459.299011
v 859.734619 0.000000 411.204865
v 859.146667 0.000000 409.205841
v 858.088379 0.000000 407.324402
v 855.736572 0.000000 406.266113
v 853.384766 0.000000 405.325409
v 850.680237 0.000000 405.560577
v 849.151550 0.000000 407.559601
v -768.560913 0.000000 -401.091064
v -934.944824 0.000000 -483.047852
v -953.509521 0.000000 -462.634888
v -786.995850 0.000000 -381.947144
v -528.980896 0.000000 -328.251038
v -618.973022 0.000000 -372.906097
v -637.139160 0.000000 -353.917297
v -551.127441 0.000000 -311.226166
v -697.827576 0.000000 -366.249512
v -761.643494 0.000000 -397.683716
v -779.509094 0.000000 -378.259338
v -708.567566 0.000000 -343.315216
v -670.797729 0.000000 -352.935242
v -690.917969 0.000000 -362.846008
v -701.929077 0.000000 -340.045258
v -670.190857 0.000000 -324.411743
v -544.225464 0.000000 -290.588715
v -655.312073 0.000000 -345.307373
v -654.876770 0.000000 -316.868408
v -556.121582 0.000000 -268.223938
v -213.200455 0.000000 -171.557388
v -302.320953 0.000000 -215.779938
v -324.494324 0.000000 -199.057770
v -240.395920 0.000000 -157.104019
v -548.552856 0.000000 -264.495728
v -485.863739 0.000000 -233.616562
v -473.484955 0.000000 -255.743622
v -536.490051 0.000000 -286.778442
v -351.111603 0.000000 -195.465393
v -467.059235 0.000000 -252.578461
v -479.409943 0.000000 -230.437576
v -373.089203 0.000000 -178.066483
v -313.225464 0.000000 -221.190872
v -517.646423 0.000000 -322.626770
v -537.437012 0.000000 -304.311096
v -338.123596 0.000000 -205.821884
v -262.340881 0.000000 -151.739029
v -337.849792 0.000000 -188.932938
v -360.461731 0.000000 -171.846481
v -284.905762 0.000000 -134.629395
v -34.899548 0.000000 -83.082573
v -206.332977 0.000000 -168.149673
v -230.787842 0.000000 -152.558487
v -52.065220 0.000000 -63.729340
v -49.205196 0.000000 -68.377296
v -42.547195 0.000000 -75.718170
v -242.489578 0.000000 -141.960739
v -254.688705 0.000000 -147.969742
v -276.381744 0.000000 -130.430679
v -247.055008 0.000000 -115.985016
v -57.694363 0.000000 -50.934975
v -236.369843 0.000000 -138.946304
v -239.931580 0.000000 -112.476181
v -65.135727 0.000000 -26.375866
v -58.423962 0.000000 -49.256889
v -1148.843872 0.000000 -426.611908
v -1150.261108 0.000000 -422.764801
v -1143.947754 0.000000 -418.615906
v -1125.298218 0.000000 -457.747711
v -1090.226685 0.000000 -449.781982
v -1086.064575 0.000000 -407.982208
v -1079.010376 0.000000 -413.626099
v -1085.718628 0.000000 -483.121185
v -1118.483765 0.000000 -488.366608
v -1211.218262 0.000000 -472.369202
v -1210.659180 0.000000 -472.721497
v -1176.724243 0.000000 -493.477295
v -1151.751953 0.000000 -469.374207
v -1169.182251 0.000000 -433.147186
v -1161.505127 0.000000 -430.663910
v -1130.304443 0.000000 -494.392609
v -1155.488647 0.000000 -516.134521
v -1214.951050 0.000000 -478.725403
v -1246.523926 0.000000 -531.317810
v -1199.716309 0.000000 -539.008789
v -1193.376221 0.000000 -517.639709
v -1230.136230 0.000000 -494.363586
v -1227.685547 0.000000 -487.620087
v -1162.064209 0.000000 -528.372498
v -1170.543213 0.000000 -551.906494
v -1247.613281 0.000000 -539.156921
v -1232.883667 0.000000 -622.846497
v -1241.877686 0.000000 -611.386780
v -1200.833374 0.000000 -590.015198
v -1204.158569 0.000000 -571.705994
v -1250.374634 0.000000 -564.216003
v -1248.793945 0.000000 -556.168823
v -1173.703613 0.000000 -567.717529
v -1170.616821 0.000000 -569.393066
v -1169.716797 0.000000 -588.873596
v -1172.546753 0.000000 -593.306274
v -1216.582275 0.000000 -662.430115
v -1222.668213 0.000000 -651.820984
v -1219.425659 0.000000 -645.566406
v -1159.271240 0.000000 -617.707092
v -1154.539185 0.000000 -616.972351
v -1138.757568 0.000000 -633.190308
v -1173.487915 0.000000 -697.328186
v -1181.313354 0.000000 -692.032715
v -1161.816406 0.000000 -656.172424
v -1175.167236 0.000000 -642.696167
v -1118.121094 0.000000 -723.197449
v -1114.015747 0.000000 -680.347168
v -1134.155151 0.000000 -673.128784
v -1151.711670 0.000000 -709.291809
v -1161.140747 0.000000 -704.630798
v -1126.410400 0.000000 -641.446899
v -1102.871582 0.000000 -649.889771
v -1110.646240 0.000000 -723.164001
v -1089.880249 0.000000 -729.845093
v -1094.616943 0.000000 -727.485718
v -1096.573242 0.000000 -723.878113
v -1092.363037 0.000000 -679.717773
v -1088.530640 0.000000 -650.959717
v -1060.841919 0.000000 -646.720825
v -1028.317505 0.000000 -716.376526
v -1036.406372 0.000000 -721.649963
v -1057.397949 0.000000 -678.374023
v -1084.645874 0.000000 -684.119202
v -1040.944946 0.000000 -637.389221
v -1019.525085 0.000000 -615.850464
v -956.056030 0.000000 -659.053223
v -959.864319 0.000000 -663.081116
v -998.373413 0.000000 -641.354614
v -1022.186523 0.000000 -662.093140
v -997.423889 0.000000 -703.019592
v -1005.194519 0.000000 -705.849792
v -1008.247498 0.000000 -703.941406
v -1012.697388 0.000000 -605.293579
v -1005.552490 0.000000 -580.919006
v -930.033875 0.000000 -593.560852
v -931.772705 0.000000 -603.530823
v -974.392822 0.000000 -596.859802
v -981.413208 0.000000 -614.493591
v -945.520386 0.000000 -637.898987
v -950.900818 0.000000 -643.544006
v -930.874695 0.000000 -578.452271
v -1000.077515 0.000000 -567.883911
v -1003.972900 0.000000 -564.501526
v -1007.523804 0.000000 -543.491272
v -937.470337 0.000000 -507.795563
v -933.122925 0.000000 -515.006104
v -975.867126 0.000000 -540.214111
v -971.364075 0.000000 -561.833374
v -925.972717 0.000000 -569.282776
v -926.783081 0.000000 -576.010010
v -1065.380249 0.000000 -412.911987
v -1063.144775 0.000000 -407.343750
v -1057.616333 0.000000 -406.928894
v -1057.328369 0.000000 -411.822174
v -1061.949341 0.000000 -454.228210
v -1041.406250 0.000000 -459.378082
v -1018.958984 0.000000 -419.069092
v -1012.222961 0.000000 -423.727264
v -1048.713867 0.000000 -492.384308
v -1072.155884 0.000000 -484.632599
v -1000.274719 0.000000 -435.285706
v -996.473083 0.000000 -433.797791
v -991.833923 0.000000 -434.773987
v -993.178589 0.000000 -440.546204
v -1012.757324 0.000000 -476.902191
v -996.282227 0.000000 -493.689423
v -952.549805 0.000000 -476.455902
v -949.875977 0.000000 -483.359497
v -1019.314026 0.000000 -517.322021
v -1021.649414 0.000000 -516.191589
v -1026.804077 0.000000 -510.043427
v -1035.122803 0.000000 -501.825409
v -1035.314087 0.000000 -498.558105
v -1122.780884 0.000000 -601.373108
v -1122.780884 0.000000 -600.375061
v -1114.463867 0.000000 -596.382935
v -1112.135132 0.000000 -598.711670
v -1106.812134 0.000000 -602.371155
v -1097.829834 0.000000 -606.696045
v -1089.180054 0.000000 -607.694092
v -1078.866943 0.000000 -607.694092
v -1070.114868 0.000000 -604.920959
v -1061.868042 0.000000 -600.691589
v -1055.579346 0.000000 -594.054138
v -1051.254517 0.000000 -588.398560
v -1047.594971 0.000000 -580.081543
v -1046.264282 0.000000 -572.097229
v -1045.931519 0.000000 -563.114807
v -1036.616455 0.000000 -557.791931
v -1036.283813 0.000000 -567.772339
v -1037.281860 0.000000 -575.424011
v -1041.122559 0.000000 -587.795349
v -1048.593018 0.000000 -599.044373
v -1057.242676 0.000000 -607.361389
v -1065.227051 0.000000 -613.016968
v -1077.203613 0.000000 -616.676453
v -1088.182007 0.000000 -617.341797
v -1098.713013 0.000000 -616.078979
v -1110.471680 0.000000 -611.353577
v -1135.422729 0.000000 -576.089355
v -1136.753418 0.000000 -567.772339
v -1136.420776 0.000000 -560.120667
v -1133.759277 0.000000 -550.140259
v -1130.765259 0.000000 -544.151978
v -1126.440308 0.000000 -537.831055
v -1120.452148 0.000000 -530.844788
v -1113.465820 0.000000 -525.521851
v -1106.812134 0.000000 -521.529724
v -1099.493164 0.000000 -518.868225
v -1091.841553 0.000000 -517.204834
v -1084.522583 0.000000 -517.204834
v -1078.201660 0.000000 -518.535583
v -1071.880737 0.000000 -520.198975
v -1065.892456 0.000000 -521.862366
v -1061.234863 0.000000 -524.191162
v -1055.246582 0.000000 -528.848694
v -1050.256470 0.000000 -533.506226
v -1058.240723 0.000000 -537.165710
v -1060.236816 0.000000 -535.502319
v -1063.896362 0.000000 -531.842834
v -1067.888550 0.000000 -530.179382
v -1072.546021 0.000000 -528.515991
v -1076.205566 0.000000 -526.852600
v -1082.526489 0.000000 -526.187256
v -1089.180054 0.000000 -526.187256
v -1095.500977 0.000000 -527.517944
v -1101.779175 0.000000 -528.995972
v -1108.460083 0.000000 -532.833252
v -1113.465820 0.000000 -536.167664
v -1118.123291 0.000000 -541.490540
v -1122.448242 0.000000 -547.146118
v -1124.444214 0.000000 -550.805603
v -1126.107666 0.000000 -555.795837
v -1127.105713 0.000000 -562.449463
v -1127.438354 0.000000 -571.431824
v 297.036530 0.000000 76.391190
v 95.093872 0.000000 -21.645752
v 82.249573 0.000000 4.811744
v 283.227234 0.000000 102.380203
v 277.154816 0.000000 113.808441
v 80.509201 0.000000 16.899424
v 69.817673 0.000000 38.594429
v 265.800659 0.000000 135.176895
v 565.767883 0.000000 206.851974
v 307.699493 0.000000 81.567734
v 293.891663 0.000000 107.557465
v 552.776733 0.000000 233.238174
v 440.783264 0.000000 194.446259
v 355.372894 0.000000 152.355133
v 344.556244 0.000000 173.988464
v 430.320404 0.000000 216.253952
v 546.278992 0.000000 246.435638
v 451.978058 0.000000 199.963165
v 441.251068 0.000000 221.640686
v 535.595520 0.000000 268.134644
v 560.984558 0.000000 237.222839
v 726.927063 0.000000 317.782776
v 739.771301 0.000000 291.325287
v 574.328003 0.000000 211.007660
v 543.314331 0.000000 271.938538
v 707.375732 0.000000 352.789703
v 718.067261 0.000000 331.094696
v 554.286621 0.000000 250.381897
v 100.242569 0.000000 472.789734
v 50.757698 0.000000 474.067108
v 51.118557 0.000000 488.046661
v 108.884399 0.000000 486.555542
v 120.223297 0.000000 472.273987
v 105.406387 0.000000 472.656464
v 106.179474 0.000000 475.676971
v 113.707336 0.000000 486.431061
v 114.872849 0.000000 486.400970
v 120.243805 0.000000 486.262329
v 180.832993 0.000000 484.698334
v 175.555786 0.000000 470.845673
v 125.027557 0.000000 472.149963
v 185.269913 0.000000 484.583801
v 207.968124 0.000000 483.997894
v 206.934540 0.000000 470.035706
v 180.360397 0.000000 470.721649
v 211.556381 0.000000 483.905273
v 238.825348 0.000000 483.201355
v 238.464493 0.000000 469.221802
v 210.887665 0.000000 469.933655
v 341.360229 0.000000 466.447723
v 298.878601 0.000000 467.392609
v 299.216705 0.000000 482.593201
v 326.869293 0.000000 481.978119
v 337.917664 0.000000 481.732391
v 398.075165 0.000000 480.394348
v 397.234436 0.000000 465.204926
v 350.881500 0.000000 466.235931
v 409.904205 0.000000 480.131226
v 429.909882 0.000000 479.686249
v 437.458496 0.000000 464.310242
v 409.210876 0.000000 464.938538
v 436.967590 0.000000 479.529266
v 509.517914 0.000000 477.915588
v 513.804077 0.000000 462.612152
v 445.320618 0.000000 464.135376
v 515.593323 0.000000 477.780457
v 534.277771 0.000000 477.364868
v 543.080627 0.000000 461.960968
v 519.810242 0.000000 462.478546
v 542.212341 0.000000 477.188385
v 612.298706 0.000000 475.629486
v 611.960571 0.000000 460.428894
v 549.335999 0.000000 461.821838
v -917.959167 0.000000 -492.579346
v -758.368896 0.000000 -413.388916
v -746.948181 0.000000 -436.408752
v -899.506714 0.000000 -511.486969
v -751.638123 0.000000 -410.049042
v -645.226624 0.000000 -357.246521
v -625.895996 0.000000 -376.341370
v -740.300781 0.000000 -433.110229
vn 0.0000 1.0000 0.0000
usemtl None
s off
f 1//1 2//1 3//1 4//1
f 5//1 6//1 7//1 8//1
f 9//1 10//1 11//1 12//1
f 13//1 14//1 15//1 16//1
f 17//1 18//1 19//1 20//1 21//1 22//1 23//1 24//1 25//1 26//1 27//1 28//1 29//1 30//1 31//1 32//1 33//1 34//1 35//1 36//1 37//1 38//1 39//1 40//1 41//1
f 42//1 43//1 44//1 45//1 46//1 47//1 48//1 49//1 50//1 51//1 52//1 53//1 54//1 55//1 56//1 57//1 58//1 59//1 60//1 61//1 62//1 63//1 64//1 65//1 66//1 67//1 68//1 69//1 70//1 71//1 72//1 73//1
f 74//1 75//1 76//1 77//1 78//1 79//1 80//1 81//1 82//1 83//1 84//1 85//1 86//1 87//1 88//1 89//1 90//1 91//1 92//1 93//1 94//1 95//1 96//1 97//1 98//1 99//1 100//1 101//1 102//1 103//1 104//1 105//1
f 106//1 107//1 108//1 109//1 110//1 111//1 112//1 113//1 114//1 115//1 116//1 117//1 118//1 119//1 120//1 121//1 122//1 123//1 124//1 125//1 126//1 127//1 128//1
f 129//1 130//1 131//1 132//1 133//1 134//1 135//1 136//1 137//1 138//1 139//1 140//1 141//1 142//1
f 143//1 144//1 145//1 146//1 147//1 148//1 149//1 150//1 151//1 152//1
f 153//1 154//1 155//1 156//1 157//1 158//1 159//1 160//1 161//1 162//1 163//1 164//1 165//1 166//1
f 167//1 168//1 169//1 170//1 171//1 172//1 173//1 174//1 175//1 176//1 177//1 178//1 179//1 180//1
f 181//1 182//1 183//1 184//1 185//1 186//1 187//1 188//1 189//1 190//1 191//1 192//1 193//1 194//1 195//1 196//1
f 197//1 198//1 199//1 200//1 201//1 202//1 203//1 204//1 205//1 206//1 207//1 208//1 209//1 210//1 211//1 212//1
f 213//1 214//1 215//1 216//1 217//1 218//1 219//1 220//1 221//1 222//1 223//1 224//1 225//1 226//1
f 227//1 228//1 229//1 230//1 231//1 232//1 233//1 234//1 235//1 236//1 237//1 238//1 239//1 240//1 241//1 242//1
f 243//1 244//1 245//1 246//1
f 247//1 248//1 249//1 250//1
f 251//1 252//1 253//1 254//1
f 255//1 256//1 257//1 258//1
f 259//1 260//1 261//1 262//1
f 263//1 264//1 265//1 266//1
f 267//1 268//1 269//1 270//1
f 271//1 272//1 273//1 274//1
f 275//1 276//1 277//1 278//1
f 279//1 280//1 281//1 282//1
f 283//1 284//1 285//1 286//1 287//1 288//1
f 289//1 290//1 291//1 292//1
f 293//1 294//1 295//1 296//1 297//1
f 298//1 299//1 300//1 301//1 302//1 303//1 304//1 305//1 306//1
f 307//1 308//1 309//1 310//1 311//1 312//1 313//1 314//1 315//1
f 316//1 317//1 318//1 319//1 320//1 321//1 322//1 323//1
f 324//1 325//1 326//1 327//1 328//1 329//1 330//1 331//1 332//1 333//1
f 334//1 335//1 336//1 337//1 338//1 339//1 340//1 341//1 342//1 343//1
f 344//1 345//1 346//1 347//1 348//1 349//1 350//1 351//1
f 352//1 353//1 354//1 355//1 356//1 357//1 358//1 359//1 360//1 361//1
f 362//1 363//1 364//1 365//1 366//1 367//1 368//1 369//1 370//1
f 371//1 372//1 373//1 374//1 375//1 376//1 377//1 378//1
f 379//1 380//1 381//1 382//1 383//1 384//1 385//1 386//1 387//1 388//1
f 389//1 390//1 391//1 392//1 393//1 394//1 395//1 396//1 397//1 398//1
f 399//1 400//1 401//1 402//1 403//1 404//1 405//1 406//1 407//1 408//1 409//1 410//1 411//1
f 412//1 413//1 414//1 415//1 416//1 417//1 418//1 419//1 420//1 421//1 422//1 423//1 424//1 425//1 426//1 427//1 428//1 429//1 430//1 431//1 432//1 433//1 434//1 435//1 436//1 437//1
f 438//1 439//1 440//1 441//1 442//1 443//1 444//1 445//1 446//1 447//1 448//1 449//1 450//1 451//1 452//1 453//1 454//1 455//1 456//1 457//1 458//1 459//1 460//1 461//1 462//1 463//1 464//1 465//1 466//1 467//1 468//1 469//1 470//1 471//1 472//1 473//1
f 474//1 475//1 476//1 477//1
f 478//1 479//1 480//1 481//1
f 482//1 483//1 484//1 485//1
f 486//1 487//1 488//1 489//1
f 490//1 491//1 492//1 493//1
f 494//1 495//1 496//1 497//1
f 498//1 499//1 500//1 501//1
f 502//1 503//1 504//1 505//1
f 506//1 507//1 508//1 509//1 510//1
f 511//1 512//1 513//1 514//1
f 515//1 516//1 517//1 518//1
f 519//1 520//1 521//1 522//1
f 523//1 524//1 525//1 526//1
f 527//1 528//1 529//1 530//1
f 531//1 532//1 533//1 534//1
f 535//1 536//1 537//1 538//1
f 539//1 540//1 541//1 542//1
f 543//1 544//1 545//1 546//1
f 547//1 548//1 549//1 550//1
f 551//1 552//1 553//1 554//1
